<svg xmlns="http://www.w3.org/2000/svg" viewBox="0 0 390.94 114.02"><defs><style>.cls-1{fill:#fefefe;}</style></defs><g id="Layer_2" data-name="Layer 2"><g id="Layer_1-2" data-name="Layer 1"><path class="cls-1" d="M390,51.67c-1.63-15.36-12.33-22.09-25.62-21.61-8.26.3-15.11,4-21,9.77-2.51-6.57-7.6-10.48-12.7-9.69-10.83,1.67-9.69,10.27-10,18.91C313.2,32.1,301.83,21.3,283.9,18.68a91.93,91.93,0,0,0-16,0c-14.19,2.65-24.62,10.74-31.74,22.93A45.78,45.78,0,0,0,231.09,77c1.71,6.63,5.15,12.86,2.33,20a113.63,113.63,0,0,0-3.35,11.43c-1.44,5.22-.79,5.9,4.49,5.3,4.68-.53,8.9-2.63,13.43-3.66,3.54-.81,7-2,10.68-.16,18.75,9.49,43.77,1.5,55.73-15.86,2.31-3.34,4-7,6.13-10.46.36,3.06,0,6,.44,8.94.6,4.37,1,8.93,6.49,10.63,5.29,1.64,9.55.7,13.57-3.2,2.45-2.37,2-5.09,2.13-7.79.37-11.12-.48-22.26.49-33.37a10.54,10.54,0,0,1,7-9.43c10.28-3.66,18.39-1.57,17.93,12.37-.34,10.48-.18,21,0,31.46.1,6.4,4.3,10.5,10.38,10.69,7.13.23,11.5-2.92,11.61-9.93C390.78,79.92,391.52,65.77,390,51.67ZM270.29,28.82c0-3.27,3.77-7.47,6.47-6.81,3.42.82,6.53,2.45,6.4,7-.14,5,0,10,0,15h0c0,5,0,10,0,15,0,4.27-2.73,5.9-6.47,5.91S270.3,63,270.3,58.79C270.29,48.8,270.24,38.81,270.29,28.82Zm20.4,71.49c-18.39,7.84-38-.84-46.28-16.52-3.65-6.93-6.12-15.1-3.61-23.89,2.95-10.3,8.11-18.54,17.09-24.43,1.51-1,3-1.69,4.6-1.09,1.8.66,1.28,2.47,1.38,3.92.3,4-.41,7-3.94,10.13C247.79,59.16,248.38,78.31,263.26,88a24.67,24.67,0,0,0,37.81-16.71c1.75-10.72-2-18.81-10.42-25.14-1.73-1.31-2.74-9.56-1.22-11a3.57,3.57,0,0,1,4.61-.36,42.94,42.94,0,0,1,13.1,11.81,38.58,38.58,0,0,1,6.22,20.56C313.68,80.08,302.4,95.33,290.69,100.31Z"/><path class="cls-1" d="M67.24,43.1C61.45,32,46.12,27.76,33.76,33.06,30,34.68,27.31,38,23,39.64c0-9.71,0-18.84,0-28C23.05,9.32,23,7,21.48,5,18.56,1.23,11.75-1,7.65.44,2.9,2.1,0,6.6,0,12.47Q0,53,0,93.44c0,8.16,3.17,11.33,11.35,11.35,8.57,0,11.68-3,11.69-11.56,0-10-.08-20,0-30,.09-6.85,4-12.32,9.38-13.63C42.25,47.23,47.84,51.5,48,61.76c.13,10.5,0,21,0,31.49,0,8.49,2.87,11.5,10.74,11.54,8.58,0,12-3.06,12-11.31.07-11.32.1-22.65,0-34C70.67,53.83,69.9,48.17,67.24,43.1Z"/><path class="cls-1" d="M117.17,31.14C96.56,32.44,82.25,46,82.46,68.55s14.88,38.3,40,36.58c22.12.49,36.63-16.42,36.36-37.55C158.5,45.12,142,29.57,117.17,31.14Zm16,49.33a13,13,0,0,1-13,8c-5.4-.26-10.33-2.51-12.49-8.68a32.53,32.53,0,0,1,.45-24.14c2.1-5,5.74-6.81,12.67-6.77,6.36-.89,11.63,4,13.33,9.49C136.4,65.87,136.42,73.2,133.14,80.47Z"/><path class="cls-1" d="M212.27,86.61c-8.91,2-14.32-2.55-14.37-11.63,0-3.33,0-6.66,0-10,0-3.83.18-7.67-.06-11.49-.18-2.93.45-4.3,3.74-3.94a72.68,72.68,0,0,0,9,.07c7.4-.16,8.67-1.5,8.57-8.89-.09-6.52-2-8-10.17-8.05-10.9,0-10.9,0-11.06-10.6,0-.5,0-1,0-1.5,0-4.83-3.16-7.89-6.94-9.34C187,9.74,182.6,9.71,178.73,12.9c-4.46,3.67-4.84,8.5-4.41,13.51.4,4.64-.44,7-6,6.43-5.15-.51-8,2.76-8.11,7.83-.17,6.64,2.17,9.09,9.47,8.84,3.77-.13,4.79.93,4.62,4.67-.32,7.15-.3,14.33,0,21.48.28,7.46,1.51,14.8,6.64,20.72,9.75,11.25,22.55,9.45,35.07,7.53,4.57-.71,6.83-8.25,5.06-14.38C219.56,84.3,216,85.79,212.27,86.61Z"/></g></g></svg>