<svg xmlns="http://www.w3.org/2000/svg" xmlns:xlink="http://www.w3.org/1999/xlink" viewBox="0 0 299.24 310.36"><defs><style>.cls-1{fill:url(#linear-gradient);}</style><linearGradient id="linear-gradient" x1="64.41" y1="60.32" x2="213.57" y2="318.68" gradientUnits="userSpaceOnUse"><stop offset="0" stop-color="#8df39c"/><stop offset="1" stop-color="#5ba1f3"/></linearGradient></defs><g id="Layer_2" data-name="Layer 2"><g id="Layer_1-2" data-name="Layer 1"><path class="cls-1" d="M258.25,99.55h-39c5.27-12.65,7.93-24.16,7.93-34.42,0-20.75-6.64-35-12.21-43.38C207.31,10.25,196.72,2.56,185.94.64A41.15,41.15,0,0,0,178.82,0h0c-16,0-29.26,9.7-34.61,25.31-3,8.77-1.84,18.49-.91,26.31.17,1.46.4,3.42.53,4.9-1.91,2.57-6.07,7.06-9.82,11.1-6.73,7.26-15.94,17.2-26.3,30.49A96.22,96.22,0,0,0,90.4,134.34a32.75,32.75,0,0,0-16.19-4.27H32.92A33,33,0,0,0,0,163V277.45a33,33,0,0,0,32.92,32.91H74.21a33,33,0,0,0,31.19-22.42,32.42,32.42,0,0,0,14.82,3.57H251.29a34.92,34.92,0,0,0,32.8-47,38.47,38.47,0,0,0,5.5-37,38.47,38.47,0,0,0,3.79-45.89,41,41,0,0,0-35.13-62.1ZM88.13,277.45a14,14,0,0,1-13.92,13.91H32.92A14,14,0,0,1,19,277.45V163a14,14,0,0,1,13.92-13.91H74.21A14,14,0,0,1,87.4,158.6c0,2,.07,3.62.13,4.61v95.61a32.4,32.4,0,0,0,.6,6.19ZM260.72,162.54a19.53,19.53,0,0,1,0,39.05h-7.18a19.53,19.53,0,0,1,0,39h-2.25a15.94,15.94,0,1,1,0,31.87H120.22a13.73,13.73,0,0,1-13.09-9.72V163a33,33,0,0,0-.69-6.7c.32-9.74,2.79-29.23,16.25-46.49,21.1-27.06,36.67-39,39.75-47.86,2-5.77-3.17-21.94-.25-30.47C164.73,24,170.67,19,178.82,19a21,21,0,0,1,3.79.35c10.1,1.79,25.59,17.5,25.59,45.78,0,17.85-11.8,39.71-20.51,53.42h70.56a22,22,0,0,1,0,44Z"/></g></g></svg>