<svg xmlns="http://www.w3.org/2000/svg" viewBox="0 0 165.27 165.27"><defs><style>.cls-1{fill:#acacb8;}</style></defs><g id="Layer_2" data-name="Layer 2"><g id="svg2"><g id="g992"><path id="path994" class="cls-1" d="M128.89,126.43a24.13,24.13,0,0,1-17.17-7.11L86.93,94.53a4.71,4.71,0,0,0-6.51,0L55.54,119.41a24.16,24.16,0,0,1-17.17,7.11H33.49l31.39,31.39a25.1,25.1,0,0,0,35.51,0l31.48-31.48Z"/></g><g id="g996"><path id="path998" class="cls-1" d="M38.37,38.75a24.12,24.12,0,0,1,17.17,7.11L80.42,70.74a4.61,4.61,0,0,0,6.51,0L111.72,46a24.09,24.09,0,0,1,17.17-7.11h3L100.39,7.35a25.12,25.12,0,0,0-35.51,0L33.49,38.75Z"/></g><g id="g1000"><path id="path1002" class="cls-1" d="M157.91,64.88l-19-19a3.58,3.58,0,0,1-1.35.28h-8.65a17.09,17.09,0,0,0-12,5L92.09,75.89a11.91,11.91,0,0,1-16.83,0L50.38,51a17.1,17.1,0,0,0-12-5H27.73a3.6,3.6,0,0,1-1.27-.26L7.35,64.88a25.12,25.12,0,0,0,0,35.51l19.1,19.1a3.7,3.7,0,0,1,1.28-.26H38.37a17.1,17.1,0,0,0,12-5L75.26,89.38a12.18,12.18,0,0,1,16.83,0l24.79,24.78a17.05,17.05,0,0,0,12,5h8.65a3.57,3.57,0,0,1,1.35.27l19-19a25.1,25.1,0,0,0,0-35.51"/></g></g></g></svg>