<svg xmlns="http://www.w3.org/2000/svg" viewBox="0 0 65.04 58.68"><defs><style>.cls-1{fill:#0d6d9e;}.cls-2{fill:#fff;stroke:#fff;}</style></defs><g id="Layer_2" data-name="Layer 2"><g id="Layer_1-2" data-name="Layer 1"><rect id="Retângulo_14" data-name="Retângulo 14" class="cls-1" width="65.04" height="58.68" rx="12"/><g id="Componente_3_1" data-name="Componente 3 1"><path id="Caminho_9" data-name="Caminho 9" class="cls-2" d="M50.91,17.8a1.1,1.1,0,0,1-1.1,1h-.15l-3.48-.45a17.92,17.92,0,1,1-14.11-6.9,1.12,1.12,0,0,1,0,2.24h0a15.69,15.69,0,1,0,12.17,5.8l-.18,4.33a1.12,1.12,0,0,1-1.12,1.07h0a1.1,1.1,0,0,1-1.07-1.13h0v0l.3-7v-.37a.83.83,0,0,1,.07-.13h0a.71.71,0,0,1,.1-.14h0a.87.87,0,0,1,.23-.2h0a.51.51,0,0,1,.16-.09h0l.15-.05h.44l6.56.87a1.12,1.12,0,0,1,1.08,1.16h0Z"/></g></g></g></svg>