<svg xmlns="http://www.w3.org/2000/svg" xmlns:xlink="http://www.w3.org/1999/xlink" viewBox="0 0 556.06 557.42"><defs><style>.cls-1{fill:#00d95f;}.cls-2{fill:url(#linear-gradient);}.cls-3{fill:url(#linear-gradient-2);}</style><linearGradient id="linear-gradient" x1="278.03" y1="-186.59" x2="278.03" y2="714.44" gradientUnits="userSpaceOnUse"><stop offset="0" stop-color="#2bf499"/><stop offset="1" stop-color="#00a3f7"/></linearGradient><linearGradient id="linear-gradient-2" x1="281.2" y1="-186.59" x2="281.2" y2="714.44" xlink:href="#linear-gradient"/></defs><g id="Layer_2" data-name="Layer 2"><g id="TEXT"><path class="cls-1" d="M280.74,0C128.94,0,5.43,123.51,5.43,275.31A274.44,274.44,0,0,0,40,408.31L0,557.42l149.87-40.15a274.71,274.71,0,0,0,130.87,33.36c151.81,0,275.32-123.51,275.32-275.32S432.55,0,280.74,0Zm0,498.59a222.85,222.85,0,0,1-114-31.57l-9.43-5.63L73.61,483.83l22.3-83.25-5.79-9.51A222.63,222.63,0,0,1,57.47,275.31C57.47,152.19,157.63,52,280.74,52S504,152.19,504,275.31,403.85,498.59,280.74,498.59Z"/><path class="cls-2" d="M280.74,0C128.94,0,5.43,123.51,5.43,275.31A274.44,274.44,0,0,0,40,408.31L0,557.42l149.87-40.15a274.71,274.71,0,0,0,130.87,33.36c151.81,0,275.32-123.51,275.32-275.32S432.55,0,280.74,0Zm0,498.59a222.85,222.85,0,0,1-114-31.57l-9.43-5.63L73.61,483.83l22.3-83.25-5.79-9.51A222.63,222.63,0,0,1,57.47,275.31C57.47,152.19,157.63,52,280.74,52S504,152.19,504,275.31,403.85,498.59,280.74,498.59Z"/><path class="cls-1" d="M383.16,313.6c-11.34-6.78-26.08-14.34-39.43-8.88-10.24,4.19-16.78,20.22-23.42,28.41-3.4,4.2-7.47,4.85-12.7,2.75-38.44-15.31-67.9-41-89.12-76.34-3.59-5.5-2.94-9.83,1.38-14.93,6.42-7.54,14.46-16.11,16.2-26.28s-3-22.06-7.24-31.11c-5.37-11.57-11.38-28.07-23-34.62-10.66-6-24.69-2.65-34.18,5.08-16.38,13.34-24.29,34.25-24.05,55a77.89,77.89,0,0,0,2.16,17.44c3.31,13.67,9.63,26.43,16.74,38.57A303.1,303.1,0,0,0,184,295.22c20.56,27.94,46.14,52.21,75.76,70.36,14.8,9.06,30.75,17,47.25,22.46,18.52,6.12,35,12.49,55,8.69,20.94-4,41.57-16.93,49.88-37.1,2.46-6,3.69-12.62,2.31-18.93C411.36,327.66,393.7,319.91,383.16,313.6Z"/><path class="cls-3" d="M383.16,313.6c-11.34-6.78-26.08-14.34-39.43-8.88-10.24,4.19-16.78,20.22-23.42,28.41-3.4,4.2-7.47,4.85-12.7,2.75-38.44-15.31-67.9-41-89.12-76.34-3.59-5.5-2.94-9.83,1.38-14.93,6.42-7.54,14.46-16.11,16.2-26.28s-3-22.06-7.24-31.11c-5.37-11.57-11.38-28.07-23-34.62-10.66-6-24.69-2.65-34.18,5.08-16.38,13.34-24.29,34.25-24.05,55a77.89,77.89,0,0,0,2.16,17.44c3.31,13.67,9.63,26.43,16.74,38.57A303.1,303.1,0,0,0,184,295.22c20.56,27.94,46.14,52.21,75.76,70.36,14.8,9.06,30.75,17,47.25,22.46,18.52,6.12,35,12.49,55,8.69,20.94-4,41.57-16.93,49.88-37.1,2.46-6,3.69-12.62,2.31-18.93C411.36,327.66,393.7,319.91,383.16,313.6Z"/></g></g></svg>